<?xml version="1.0" standalone="no"?>
<!DOCTYPE svg PUBLIC "-//W3C//DTD SVG 20010904//EN"
 "http://www.w3.org/TR/2001/REC-SVG-20010904/DTD/svg10.dtd">
<svg version="1.0" xmlns="http://www.w3.org/2000/svg"
 width="960.000000pt" height="637.000000pt" viewBox="0 0 960.000000 637.000000"
 preserveAspectRatio="xMidYMid meet">
<metadata>
Created by potrace 1.15, written by Peter Selinger 2001-2017
</metadata>
<g transform="translate(0.000000,637.000000) scale(0.100000,-0.100000)"
fill="#000000" stroke="none">
<path d="M4261 6349 c-602 -105 -1162 -381 -1631 -804 -135 -122 -375 -388
-292 -324 14 11 13 10 -2 -9 -21 -24 -31 -29 -20 -9 4 6 -2 3 -14 -7 -26 -23
-30 -44 -4 -25 14 11 13 10 -2 -9 -21 -24 -32 -29 -20 -9 5 8 2 8 -9 -2 -20
-16 -23 -36 -4 -25 8 5 8 2 -2 -9 -16 -20 -25 -23 -15 -4 4 6 -2 3 -14 -7 -26
-23 -30 -44 -4 -25 15 11 15 11 4 -1 -7 -8 -18 -15 -24 -15 -6 0 -13 -6 -16
-14 -3 -9 0 -11 9 -6 8 5 11 4 6 -1 -5 -5 -14 -9 -19 -9 -6 0 -13 -6 -16 -14
-3 -9 0 -11 8 -6 9 6 11 4 6 -4 -5 -7 -11 -10 -14 -7 -7 7 -32 -13 -32 -26 0
-6 8 -4 18 3 15 13 16 12 3 -3 -7 -10 -17 -15 -22 -13 -4 3 -13 -3 -18 -14
-14 -26 -14 -34 2 -25 7 4 9 3 4 -2 -5 -5 -14 -9 -19 -9 -6 0 -13 -6 -16 -14
-3 -9 0 -11 8 -6 9 5 11 4 6 -4 -4 -6 -11 -9 -16 -6 -5 3 -20 -14 -34 -38 -29
-49 -32 -62 -13 -51 7 4 9 3 4 -2 -5 -5 -14 -9 -20 -9 -25 0 -269 -529 -266
-578 0 -7 12 19 26 56 41 109 36 72 -7 -51 -72 -205 -118 -416 -164 -757 -5
-39 2 106 8 170 5 48 5 48 -4 10 -5 -22 -12 -79 -16 -127 l-7 -88 -801 -2
-801 -3 815 -5 815 -5 -812 -3 -813 -2 0 -215 0 -215 813 -2 812 -3 -815 -5
-815 -5 801 -3 801 -2 7 -87 c4 -49 11 -106 16 -128 9 -38 9 -38 4 10 -6 64
-13 209 -8 170 46 -341 92 -552 164 -757 43 -123 48 -160 7 -51 -14 37 -26 63
-26 56 -3 -49 241 -578 266 -578 6 0 15 -4 20 -9 5 -5 3 -6 -4 -2 -19 11 -16
-2 13 -51 14 -24 29 -41 34 -38 5 3 12 0 16 -6 5 -8 3 -9 -6 -4 -8 5 -11 3 -8
-6 3 -8 10 -14 15 -14 6 0 15 -4 20 -9 5 -5 3 -6 -4 -2 -16 9 -16 1 -2 -25 5
-11 14 -17 18 -14 5 2 15 -3 22 -13 13 -15 12 -16 -3 -3 -10 7 -18 9 -18 3 0
-11 31 -39 37 -34 3 2 8 0 11 -4 4 -4 1 -4 -7 1 -9 5 -12 3 -9 -6 3 -8 10 -14
15 -14 6 0 15 -4 20 -9 5 -5 2 -6 -6 -1 -9 5 -12 3 -9 -6 3 -8 10 -13 16 -12
5 1 16 -5 24 -15 12 -15 11 -16 -4 -3 -26 20 -22 -2 4 -25 13 -12 18 -13 13
-4 -8 13 -7 13 8 1 18 -15 23 -26 7 -16 -17 10 -11 -12 7 -26 15 -12 16 -12 8
1 -5 9 0 8 13 -4 25 -21 31 -36 7 -16 -24 20 -17 -5 7 -26 13 -12 18 -13 13
-4 -5 9 0 8 13 -4 25 -21 31 -36 7 -16 -8 7 -15 9 -15 4 0 -15 219 -247 310
-329 418 -377 892 -630 1424 -759 251 -62 289 -65 746 -65 457 0 495 3 746 65
532 129 1006 382 1424 759 135 122 375 388 293 324 -15 -11 -14 -10 1 9 21 24
31 29 20 10 -4 -7 2 -4 14 6 26 23 30 44 5 25 -15 -11 -14 -10 1 9 21 24 32
29 20 10 -5 -9 -2 -9 9 1 18 14 24 36 7 26 -16 -10 -11 1 7 16 15 12 16 12 8
-1 -5 -9 0 -8 13 4 26 23 30 45 5 25 -16 -13 -17 -12 -5 3 8 10 19 16 24 15 6
-1 13 4 16 12 3 9 0 11 -9 6 -8 -5 -11 -4 -6 1 5 5 14 9 20 9 5 0 12 6 15 14
3 9 0 11 -9 6 -8 -5 -11 -4 -6 1 5 5 12 9 15 9 13 0 32 16 32 27 0 6 -7 5 -17
-3 -16 -13 -17 -12 -4 3 7 10 17 15 22 13 4 -3 13 3 18 14 14 26 14 34 -1 25
-8 -4 -10 -3 -5 2 5 5 14 9 20 9 5 0 12 6 15 14 3 9 0 11 -8 6 -9 -5 -11 -4
-6 4 4 6 11 9 16 6 5 -3 20 14 34 38 29 49 32 62 14 51 -8 -4 -10 -3 -5 2 5 5
14 9 20 9 25 0 269 529 266 578 0 7 -12 -19 -26 -56 -41 -109 -36 -72 7 51 72
205 118 416 164 757 5 39 -2 -106 -8 -170 -5 -48 -5 -48 4 -10 5 22 12 79 16
128 l7 87 801 2 801 3 -815 5 -815 5 813 3 812 2 0 215 0 215 -812 2 -813 3
815 5 815 5 -801 3 -801 2 -7 88 c-4 48 -11 105 -16 127 -9 38 -9 38 -4 -10 6
-64 13 -209 8 -170 -46 341 -92 552 -164 757 -43 123 -48 160 -7 51 14 -37 26
-63 26 -56 3 49 -241 578 -266 578 -6 0 -15 4 -20 9 -5 5 -3 6 5 2 18 -11 15
2 -14 51 -14 24 -29 41 -34 38 -5 -3 -12 0 -16 6 -5 8 -3 9 6 4 8 -5 11 -3 8
6 -3 8 -10 14 -15 14 -6 0 -15 4 -20 9 -5 5 -3 6 5 2 15 -9 15 -1 1 25 -5 11
-14 17 -18 14 -5 -2 -15 3 -22 13 -13 15 -12 16 4 3 10 -8 17 -9 17 -3 0 11
-19 27 -32 27 -3 0 -10 4 -15 9 -5 5 -2 6 6 1 9 -5 12 -3 9 6 -3 8 -10 14 -15
14 -6 0 -15 4 -20 9 -5 5 -2 6 6 1 9 -5 12 -3 9 6 -3 8 -10 14 -16 14 -6 0
-17 7 -24 15 -11 12 -11 12 5 1 25 -19 21 2 -5 25 -13 12 -18 13 -13 4 8 -13
7 -13 -8 -1 -18 15 -23 26 -7 16 17 -10 11 12 -7 26 -15 12 -16 12 -8 -1 5 -9
0 -8 -13 4 -25 21 -31 36 -7 16 24 -20 17 5 -7 26 -13 12 -18 13 -13 4 5 -9 0
-8 -13 4 -25 21 -31 36 -7 16 8 -7 15 -9 15 -4 0 15 -219 247 -310 329 -418
377 -892 630 -1424 759 -253 62 -287 65 -756 64 -362 -1 -440 -3 -529 -19z
m159 4 c-14 -2 -70 -11 -125 -19 -382 -59 -795 -211 -1145 -422 -232 -139
-385 -259 -600 -466 l-145 -140 120 122 c408 418 933 718 1509 862 153 38 318
68 371 68 23 -1 29 -2 15 -5z m915 -13 c661 -115 1277 -438 1740 -912 l120
-122 -145 140 c-215 207 -368 327 -600 466 -350 211 -763 363 -1145 422 -55 8
-111 17 -125 19 -21 4 -20 4 6 6 17 0 84 -8 149 -19z m-245 -411 c272 -29 573
-110 832 -224 119 -53 311 -156 348 -186 l25 -21 -30 18 c-106 64 -297 164
-312 164 -5 0 51 -31 123 -69 257 -135 431 -261 644 -466 80 -77 132 -125 116
-107 -17 17 -28 32 -25 32 3 0 23 -19 44 -42 22 -23 32 -36 23 -29 -31 23 -19
-4 14 -35 18 -16 24 -19 14 -6 -29 34 -14 26 20 -10 16 -18 21 -26 12 -19 -26
19 -22 -2 4 -25 12 -10 18 -13 14 -6 -10 18 -1 15 15 -5 10 -11 10 -14 2 -9
-19 11 -16 -9 4 -25 11 -10 14 -10 9 -1 -11 18 -1 15 15 -5 10 -11 10 -14 2
-9 -19 11 -16 -9 4 -25 11 -10 14 -10 9 -1 -11 18 -1 15 15 -5 12 -14 12 -16
0 -9 -9 6 -12 4 -9 -5 3 -8 10 -14 16 -14 5 0 14 -4 19 -9 5 -5 2 -6 -6 -1 -9
5 -12 3 -9 -6 3 -8 10 -14 16 -14 5 0 14 -4 19 -9 5 -5 3 -6 -4 -2 -19 11 -16
-9 4 -25 14 -12 16 -12 8 0 -5 10 -4 12 4 7 6 -4 9 -11 6 -16 -8 -13 14 -52
25 -45 5 3 12 0 16 -6 4 -8 3 -9 -4 -5 -17 10 -15 2 9 -38 12 -20 26 -33 32
-29 6 3 7 1 3 -5 -4 -6 15 -53 43 -104 206 -385 321 -849 321 -1293 0 -444
-115 -908 -321 -1293 -28 -51 -47 -98 -43 -104 4 -6 3 -8 -3 -5 -6 4 -20 -9
-32 -29 -24 -40 -26 -48 -9 -38 7 4 8 3 4 -5 -4 -6 -11 -9 -16 -6 -11 7 -33
-32 -25 -45 3 -5 0 -12 -6 -16 -8 -5 -9 -3 -4 7 8 12 6 12 -8 0 -20 -16 -23
-36 -4 -25 7 4 9 3 4 -2 -5 -5 -14 -9 -20 -9 -5 0 -12 -6 -15 -14 -3 -9 0 -11
9 -6 8 5 11 4 6 -1 -5 -5 -14 -9 -20 -9 -5 0 -12 -6 -15 -14 -3 -8 0 -11 7 -7
17 11 13 0 -6 -15 -15 -12 -16 -12 -8 1 8 13 7 13 -8 1 -18 -14 -24 -36 -7
-26 16 10 11 -1 -7 -16 -15 -12 -16 -12 -8 1 8 13 7 13 -8 1 -18 -14 -24 -36
-7 -26 16 10 11 -1 -7 -16 -15 -12 -16 -12 -8 1 5 9 0 8 -13 -4 -24 -21 -31
-46 -7 -26 28 24 15 4 -17 -26 -28 -24 -30 -25 -13 -4 17 21 15 20 -13 -4 -31
-29 -47 -61 -17 -36 32 26 13 2 -27 -35 -40 -38 -41 -38 -13 -5 17 19 -35 -28
-115 -105 -213 -205 -387 -331 -644 -466 -72 -38 -128 -69 -123 -69 15 0 206
100 312 164 l30 18 -25 -21 c-74 -61 -372 -204 -568 -272 -304 -105 -581 -151
-902 -151 -321 0 -598 46 -902 151 -196 68 -494 211 -568 272 l-25 21 30 -18
c106 -64 297 -164 312 -164 5 0 -51 31 -123 69 -257 135 -431 261 -644 466
-80 77 -132 125 -116 107 17 -17 28 -32 25 -32 -3 0 -23 19 -44 42 -22 23 -32
36 -22 29 30 -23 18 4 -15 35 -28 24 -30 25 -13 4 17 -21 15 -20 -13 4 -32 30
-45 50 -17 26 24 -20 17 5 -7 26 -13 12 -18 13 -13 4 8 -13 7 -13 -8 -1 -18
15 -23 26 -7 16 17 -10 11 12 -7 26 -15 12 -16 12 -8 -1 8 -13 7 -13 -8 -1
-18 15 -23 26 -7 16 17 -10 11 12 -7 26 -15 12 -16 12 -8 -1 8 -13 7 -13 -8
-1 -19 15 -23 26 -6 15 7 -4 10 -1 7 7 -3 8 -10 14 -15 14 -6 0 -15 4 -20 9
-5 5 -2 6 6 1 9 -5 12 -3 9 6 -3 8 -10 14 -15 14 -6 0 -15 4 -20 9 -5 5 -3 6
5 2 18 -11 15 9 -5 25 -14 12 -16 12 -8 0 5 -10 4 -12 -4 -7 -6 4 -9 11 -6 16
8 13 -14 52 -25 45 -5 -3 -12 0 -16 6 -4 8 -3 9 4 5 17 -10 15 -2 -9 38 -12
20 -26 33 -32 29 -6 -3 -7 -1 -3 5 4 6 -15 53 -43 104 -206 385 -321 849 -321
1293 0 444 115 908 321 1293 28 51 47 98 43 104 -4 6 -3 8 3 5 6 -4 20 9 32
29 24 40 26 48 9 38 -7 -4 -8 -3 -4 5 4 6 11 9 16 6 11 -7 33 32 25 45 -3 5 0
12 6 16 8 5 9 3 4 -7 -8 -12 -6 -12 8 0 20 16 23 36 5 25 -8 -4 -10 -3 -5 2 5
5 14 9 19 9 6 0 13 6 16 14 3 9 0 11 -9 6 -8 -5 -11 -4 -6 1 5 5 14 9 19 9 6
0 13 6 16 14 3 9 0 11 -9 5 -12 -7 -12 -5 0 9 16 20 26 23 15 5 -5 -9 -2 -9 9
1 20 16 23 36 5 25 -9 -5 -9 -2 1 9 16 20 26 23 15 5 -5 -9 -2 -9 9 1 20 16
23 36 5 25 -9 -5 -9 -2 1 9 16 20 25 23 15 5 -4 -7 2 -4 14 6 26 23 30 44 5
25 -10 -7 -5 1 11 19 34 36 49 44 20 10 -10 -13 -4 -10 14 6 31 29 47 61 17
36 -32 -26 -13 -2 27 35 40 38 41 38 13 5 -17 -19 35 28 115 105 213 205 387
331 644 466 72 38 128 69 123 69 -15 0 -206 -100 -312 -164 l-30 -18 25 21
c36 30 229 133 347 185 316 140 669 223 1013 240 91 4 288 -3 400 -15z m-2870
-1793 c-53 -136 -108 -345 -135 -511 -75 -462 -26 -975 135 -1392 16 -42 25
-72 19 -66 -5 5 -28 61 -49 124 -152 444 -189 898 -110 1360 30 174 111 466
151 542 21 38 16 13 -11 -57z m5190 -57 c152 -444 189 -898 110 -1360 -32
-189 -128 -521 -159 -552 -6 -6 3 24 19 66 53 137 107 345 135 512 75 462 26
975 -135 1392 -16 42 -25 72 -19 66 5 -5 28 -61 49 -124z m-4640 -3355 c172
-140 404 -291 586 -382 285 -143 645 -260 939 -306 55 -8 111 -17 125 -19 21
-4 20 -4 -6 -6 -48 -2 -250 36 -398 74 -574 148 -1086 442 -1491 857 l-120
122 145 -140 c80 -77 179 -167 220 -200z m4305 215 c-417 -419 -919 -707
-1491 -854 -148 -38 -350 -76 -398 -74 -26 2 -27 2 -6 6 14 2 70 11 125 19
649 100 1290 430 1765 908 63 64 117 116 120 116 2 0 -49 -54 -115 -121z"/>
<path d="M4353 4202 c-128 -323 -338 -855 -468 -1182 -129 -327 -233 -600
-231 -607 7 -18 316 -19 334 -1 7 7 12 8 12 2 0 -8 124 286 227 539 l35 87
494 0 c352 -1 495 -4 500 -12 4 -7 3 -8 -4 -4 -7 4 -12 4 -12 0 0 -5 55 -147
122 -316 l121 -308 199 0 c109 0 198 1 198 3 0 2 -11 32 -26 66 -14 35 -23 65
-21 67 2 3 15 -23 27 -56 12 -33 27 -63 33 -67 5 -3 8 -2 5 3 -3 5 -119 297
-257 649 -137 352 -345 883 -462 1180 -116 297 -213 542 -217 545 -3 3 -2 -4
1 -15 7 -19 6 -19 -7 -2 -12 16 -32 18 -192 16 l-179 -1 -232 -586z m470 -85
c41 -103 72 -185 68 -183 -4 3 -36 77 -71 165 -35 89 -65 159 -67 157 -3 -2
75 -201 173 -443 97 -241 179 -446 181 -455 5 -17 -17 -18 -362 -18 -290 0
-366 3 -362 13 128 323 347 891 344 893 -2 2 -16 -29 -32 -68 -15 -40 -32 -77
-37 -83 -9 -9 10 42 46 130 8 19 21 34 27 33 7 -2 15 6 17 17 4 17 3 18 -13 5
-17 -14 -17 -13 -6 8 7 13 14 22 16 20 2 -1 37 -87 78 -191z"/>
</g>
</svg>
