<?xml version="1.0" standalone="no"?>
<!DOCTYPE svg PUBLIC "-//W3C//DTD SVG 20010904//EN"
 "http://www.w3.org/TR/2001/REC-SVG-20010904/DTD/svg10.dtd">
<svg version="1.0" xmlns="http://www.w3.org/2000/svg"
 width="2000.000000pt" height="2344.000000pt" viewBox="0 0 2000.000000 2344.000000"
 preserveAspectRatio="xMidYMid meet">
<metadata>
Created by potrace 1.15, written by Peter Selinger 2001-2017
</metadata>
<g transform="translate(0.000000,2344.000000) scale(0.100000,-0.100000)"
fill="#000000" stroke="none">
<path d="M9680 17820 l0 -4060 -4530 0 -4530 0 0 -320 0 -320 9380 0 9380 0 0
320 0 320 -4530 0 -4530 0 0 4060 0 4060 -320 0 -320 0 0 -4060z"/>
<path d="M17180 20005 l0 -625 -625 0 -625 0 0 -315 0 -315 625 0 625 0 0
-625 0 -625 320 0 320 0 0 625 0 625 625 0 625 0 0 315 0 315 -625 0 -625 0 0
625 0 625 -320 0 -320 0 0 -625z"/>
<path d="M6560 9690 l0 -320 1560 0 1560 0 0 -4060 0 -4060 320 0 320 0 0
4060 0 4060 1560 0 1560 0 0 320 0 320 -3440 0 -3440 0 0 -320z"/>
<path d="M15930 3750 l0 -320 1570 0 1570 0 0 320 0 320 -1570 0 -1570 0 0
-320z"/>
</g>
</svg>
