<?xml version="1.0" standalone="no"?>
<!DOCTYPE svg PUBLIC "-//W3C//DTD SVG 20010904//EN"
 "http://www.w3.org/TR/2001/REC-SVG-20010904/DTD/svg10.dtd">
<svg version="1.0" xmlns="http://www.w3.org/2000/svg"
 width="1000.000000pt" height="375.000000pt" viewBox="0 0 1000.000000 375.000000"
 preserveAspectRatio="xMidYMid meet">
<metadata>
Created by potrace 1.15, written by Peter Selinger 2001-2017
</metadata>
<g transform="translate(0.000000,375.000000) scale(0.100000,-0.100000)"
fill="#000000" stroke="none">
<path d="M3227 2235 l-147 -295 -915 0 -915 0 0 -65 0 -65 941 0 c846 0 944 2
968 16 20 12 58 79 153 268 l125 251 282 -562 281 -563 63 0 62 0 281 562 281
563 282 -563 281 -562 63 0 62 0 281 562 281 563 282 -563 281 -562 63 0 62 0
148 295 147 295 915 0 915 0 0 65 0 65 -941 0 c-846 0 -944 -2 -968 -16 -20
-12 -58 -79 -153 -268 l-125 -251 -282 563 -281 562 -63 0 -62 0 -281 -562
-281 -563 -282 563 -281 562 -63 0 -62 0 -281 -562 -281 -563 -282 563 -281
562 -63 0 -62 0 -148 -295z"/>
</g>
</svg>
