<?xml version="1.0" standalone="no"?>
<!DOCTYPE svg PUBLIC "-//W3C//DTD SVG 20010904//EN"
 "http://www.w3.org/TR/2001/REC-SVG-20010904/DTD/svg10.dtd">
<svg version="1.0" xmlns="http://www.w3.org/2000/svg"
 width="1000.000000pt" height="1250.000000pt" viewBox="0 0 1000.000000 1250.000000"
 preserveAspectRatio="xMidYMid meet">
<metadata>
Created by potrace 1.15, written by Peter Selinger 2001-2017
</metadata>
<g transform="translate(0.000000,1250.000000) scale(0.100000,-0.100000)"
fill="#000000" stroke="none">
<path d="M3773 12375 c-300 -77 -540 -316 -625 -621 -21 -76 -22 -98 -26 -611
-2 -407 -6 -533 -15 -533 -40 0 -429 -34 -632 -55 -773 -81 -1321 -203 -1660
-370 -147 -72 -233 -135 -276 -203 l-29 -46 0 -633 0 -633 4480 0 4480 0 -2
638 -3 638 -28 42 c-88 134 -395 279 -806 382 -428 107 -900 173 -1693 236
l-77 6 -4 526 c-4 576 -4 580 -67 732 -103 250 -334 446 -600 510 -83 19 -114
20 -1205 19 l-1120 0 -92 -24z m2077 -1347 l0 -373 -865 0 -865 0 0 373 0 372
865 0 865 0 0 -372z"/>
<path d="M1134 7893 c3 -21 170 -1741 371 -3823 201 -2082 367 -3800 370
-3817 l6 -33 3109 0 3109 0 6 43 c3 23 169 1743 370 3822 201 2079 367 3795
369 3813 l5 32 -3861 0 -3860 0 6 -37z m1878 -1242 c74 -29 146 -94 187 -171
26 -48 35 -80 42 -153 17 -162 251 -4439 246 -4513 -7 -133 -83 -246 -206
-307 -59 -29 -74 -32 -156 -32 -72 0 -100 5 -139 23 -103 47 -181 134 -211
235 -10 35 -50 695 -141 2320 -136 2436 -132 2323 -83 2423 42 87 145 168 246
194 56 14 150 5 215 -19z m2066 15 c111 -30 211 -118 254 -224 l23 -57 0
-2310 0 -2310 -23 -58 c-33 -81 -114 -166 -194 -203 -54 -25 -75 -29 -148 -29
-74 0 -93 4 -150 31 -83 39 -145 101 -184 184 l-31 65 0 2320 0 2320 27 57
c79 170 256 259 426 214z m2176 -24 c109 -52 197 -169 211 -282 8 -57 -241
-4537 -256 -4607 -13 -66 -76 -163 -131 -204 -79 -57 -124 -72 -223 -73 -78
-1 -98 3 -147 26 -76 35 -138 95 -179 170 -28 54 -34 75 -37 148 -4 94 231
4399 247 4522 34 259 287 407 515 300z"/>
</g>
</svg>
