<?xml version="1.0" standalone="no"?>
<!DOCTYPE svg PUBLIC "-//W3C//DTD SVG 20010904//EN"
 "http://www.w3.org/TR/2001/REC-SVG-20010904/DTD/svg10.dtd">
<svg version="1.0" xmlns="http://www.w3.org/2000/svg"
 width="1000.000000pt" height="739.000000pt" viewBox="0 0 1000.000000 739.000000"
 preserveAspectRatio="xMidYMid meet">
<metadata>
Created by potrace 1.15, written by Peter Selinger 2001-2017
</metadata>
<g transform="translate(0.000000,739.000000) scale(0.100000,-0.100000)"
fill="#000000" stroke="none">
<path d="M4925 7033 c-1504 -51 -2783 -1092 -3129 -2548 -26 -109 -62 -314
-71 -410 -3 -33 -8 -79 -11 -102 l-5 -43 -845 0 -844 0 0 -220 0 -220 844 0
845 0 5 -42 c55 -479 128 -763 287 -1113 439 -964 1316 -1668 2343 -1880 740
-152 1508 -54 2169 276 335 168 600 360 868 628 182 183 287 310 424 516 251
376 430 826 504 1270 17 98 41 299 41 336 0 5 347 9 825 9 l825 0 0 220 0 220
-824 0 -824 0 -7 68 c-11 122 -36 285 -61 406 -285 1354 -1399 2398 -2769
2595 -172 25 -428 40 -590 34z m510 -472 c576 -88 1057 -309 1497 -690 324
-279 608 -679 773 -1091 350 -871 249 -1873 -269 -2653 -115 -173 -221 -302
-371 -452 -450 -451 -1006 -727 -1650 -822 -152 -22 -590 -25 -735 -5 -345 49
-622 133 -925 282 -766 376 -1333 1089 -1530 1923 -53 223 -69 373 -69 647 -1
275 6 348 55 595 179 887 801 1663 1637 2040 295 134 605 213 977 249 106 11
486 -4 610 -23z"/>
<path d="M3912 4928 c3 -7 213 -568 468 -1245 l464 -1233 175 0 176 0 444
1233 c245 677 447 1238 449 1245 3 9 -32 12 -155 12 l-159 0 -369 -1005 c-203
-553 -372 -1005 -375 -1005 -3 0 -174 452 -380 1005 l-375 1005 -184 0 c-142
0 -182 -3 -179 -12z"/>
</g>
</svg>
